<svg width="307" height="58" viewBox="0 0 307 58" fill="none" xmlns="http://www.w3.org/2000/svg">
<path d="M234.143 42.4394L231.657 42.4302L230.819 42.0343C229.965 41.6414 229.358 41.1012 228.996 40.4137C228.633 39.72 228.483 38.9066 228.544 37.9735C228.612 37.0711 228.854 36.3038 229.272 35.6715C229.695 35.0392 230.251 34.5574 230.938 34.2259C231.632 33.8944 232.427 33.7286 233.323 33.7286L237.596 33.7378L235.275 47.1447H232.2L234.088 36.2332L233.204 36.2148C232.596 36.2209 232.185 36.4358 231.97 36.8594C231.761 37.2829 231.623 37.7525 231.555 38.2682C231.519 38.5383 231.488 38.8145 231.463 39.0969C231.445 39.3793 231.491 39.6156 231.601 39.8059C231.718 39.9962 231.951 40.1036 232.301 40.1282L234.53 40.1374L234.143 42.4394ZM232.752 41.2332L229.484 47.1447H226.003L229.244 41.2332H232.752Z" fill="#1C0E27"/>
<path d="M224.143 36.703L219.953 47.1449H216.564L222.9 33.738H225.036L224.143 36.703ZM224.253 47.1449L223.664 36.3899L223.737 33.738H225.772L227.467 47.1449H224.253ZM225.202 42.1449L224.76 44.6403H219.106L219.548 42.1449H225.202Z" fill="#1C0E27"/>
<path d="M217.153 33.738L214.823 47.1449H211.738L214.068 33.738H217.153ZM220.302 33.738L219.869 36.2334H210.56L211.002 33.738H220.302Z" fill="#1C0E27"/>
<path d="M202.991 42.0068L207.669 33.738H210.818L208.497 47.1449H205.413L206.858 38.8853L202.172 47.1449H199.022L201.352 33.738H204.437L202.991 42.0068Z" fill="#1C0E27"/>
<path d="M194.988 33.738L192.649 47.1449H189.592L191.912 33.738H194.988ZM201.249 33.738L196.111 41.8411H193.072L193.201 38.9221H194.877L197.391 33.738H201.249ZM195.678 47.1449L194.583 41.1505L197.096 39.0879L199.187 47.1449H195.678Z" fill="#1C0E27"/>
<path d="M182.685 40.7361L180.548 40.7269L180.834 39.1063L182.077 39.1247C182.415 39.1125 182.675 39.0235 182.86 38.8577C183.05 38.692 183.191 38.4771 183.283 38.2131C183.375 37.943 183.44 37.6668 183.477 37.3844C183.501 37.1696 183.498 36.9609 183.467 36.7583C183.437 36.5496 183.357 36.3746 183.228 36.2334C183.105 36.0922 182.915 36.0216 182.657 36.0216C182.381 36.0155 182.157 36.08 181.985 36.215C181.819 36.3501 181.69 36.525 181.598 36.7399C181.506 36.9486 181.435 37.1665 181.386 37.3936L178.329 37.4121C178.36 36.8166 178.501 36.2795 178.753 35.8006C179.011 35.3218 179.348 34.9136 179.766 34.576C180.183 34.2384 180.656 33.9836 181.184 33.8117C181.712 33.6337 182.264 33.5478 182.841 33.5539C183.406 33.5662 183.925 33.6583 184.397 33.8301C184.876 33.9959 185.284 34.2414 185.622 34.5668C185.96 34.886 186.217 35.2758 186.395 35.7362C186.573 36.1905 186.644 36.7122 186.607 37.3016C186.577 37.8233 186.451 38.296 186.23 38.7196C186.009 39.1432 185.717 39.5053 185.355 39.8061C184.999 40.1069 184.591 40.3371 184.13 40.4967C183.676 40.6563 183.194 40.7361 182.685 40.7361ZM180.687 39.9074L182.491 39.9166C183.007 39.9289 183.47 40.0148 183.882 40.1745C184.293 40.3279 184.64 40.552 184.922 40.8466C185.211 41.1352 185.422 41.4881 185.558 41.9056C185.699 42.3168 185.754 42.7865 185.723 43.3144C185.68 43.9589 185.521 44.5329 185.244 45.0363C184.968 45.5335 184.603 45.9571 184.149 46.307C183.701 46.6508 183.194 46.9116 182.629 47.0897C182.071 47.2615 181.485 47.3444 180.871 47.3383C180.294 47.3199 179.766 47.2155 179.287 47.0252C178.814 46.8349 178.406 46.5679 178.062 46.2241C177.718 45.8803 177.454 45.4721 177.27 44.9994C177.092 44.5206 177.006 43.9958 177.013 43.4249L180.07 43.4157C180.07 43.6367 180.094 43.8577 180.143 44.0786C180.198 44.2935 180.297 44.4715 180.438 44.6127C180.579 44.7539 180.785 44.8276 181.055 44.8337C181.362 44.846 181.629 44.7785 181.856 44.6311C182.089 44.4777 182.273 44.2782 182.408 44.0326C182.55 43.7871 182.645 43.5231 182.694 43.2407C182.731 43.0443 182.755 42.8478 182.768 42.6514C182.786 42.4488 182.78 42.2677 182.749 42.1081C182.718 41.9424 182.645 41.8073 182.528 41.703C182.418 41.5925 182.233 41.528 181.976 41.5096L180.41 41.5004L180.687 39.9074Z" fill="#1C0E27"/>
<path d="M170.281 42.0068L174.958 33.738H178.107L175.787 47.1449H172.702L174.148 38.8853L169.461 47.1449H166.312L168.642 33.738H171.726L170.281 42.0068Z" fill="#1C0E27"/>
<path d="M301.579 19.444H298.734L299.102 17.3262L301.128 17.3446C301.465 17.3385 301.763 17.274 302.021 17.1512C302.285 17.0285 302.497 16.8505 302.656 16.6172C302.822 16.3839 302.933 16.0985 302.988 15.7608C303.031 15.4785 303.037 15.2268 303.006 15.0058C302.975 14.7787 302.883 14.5976 302.73 14.4625C302.583 14.3213 302.349 14.2477 302.03 14.2415L300.815 14.2323L298.909 25.1438H295.852L298.163 11.7369L302.131 11.7461C302.696 11.7523 303.227 11.8321 303.724 11.9856C304.222 12.1329 304.654 12.3539 305.023 12.6485C305.397 12.9432 305.683 13.3176 305.879 13.7719C306.076 14.22 306.155 14.7541 306.118 15.3741C306.076 16.08 305.894 16.6694 305.575 17.142C305.256 17.6086 304.829 17.9646 304.295 18.2102C303.767 18.4557 303.166 18.5908 302.491 18.6153L301.579 19.444ZM300.52 25.1438H296.92L298.421 22.6576L300.631 22.6761C300.95 22.6638 301.22 22.587 301.441 22.4459C301.662 22.2985 301.837 22.1052 301.966 21.8657C302.101 21.6202 302.193 21.3501 302.242 21.0554C302.285 20.8406 302.309 20.6135 302.316 20.374C302.328 20.1346 302.282 19.929 302.177 19.7571C302.079 19.5791 301.889 19.4778 301.607 19.4532L299.139 19.444L299.535 17.3262L302.085 17.3354L302.638 18.1733C303.227 18.1918 303.721 18.3207 304.12 18.5601C304.526 18.7995 304.826 19.1371 305.023 19.573C305.225 20.0088 305.302 20.5183 305.253 21.1015C305.198 22.0161 304.958 22.7743 304.535 23.3759C304.117 23.9774 303.562 24.4256 302.868 24.7202C302.174 25.0149 301.392 25.1561 300.52 25.1438Z" fill="#1C0E27"/>
<path d="M296.33 17.3817L296.017 19.4075C295.906 20.1871 295.71 20.936 295.427 21.6542C295.151 22.3663 294.783 23.0017 294.323 23.5603C293.862 24.1189 293.3 24.5609 292.637 24.8862C291.981 25.2055 291.222 25.3528 290.363 25.3282C289.54 25.3098 288.853 25.1318 288.3 24.7942C287.748 24.4565 287.315 24.0115 287.002 23.459C286.689 22.9004 286.483 22.2773 286.385 21.5898C286.287 20.8961 286.281 20.1871 286.367 19.4627L286.671 17.4278C286.781 16.6666 286.975 15.9299 287.251 15.2178C287.533 14.5057 287.908 13.8704 288.374 13.3118C288.841 12.747 289.402 12.3081 290.059 11.995C290.722 11.6758 291.483 11.5285 292.343 11.553C293.153 11.5653 293.831 11.7403 294.378 12.0779C294.93 12.4155 295.363 12.8606 295.676 13.4131C295.995 13.9655 296.204 14.5886 296.302 15.2823C296.407 15.9698 296.416 16.6696 296.33 17.3817ZM292.904 19.4627L293.218 17.4001C293.248 17.1362 293.282 16.8231 293.319 16.4609C293.356 16.0926 293.356 15.7304 293.319 15.3744C293.282 15.0183 293.175 14.7175 292.997 14.472C292.819 14.2264 292.533 14.0945 292.14 14.076C291.674 14.0453 291.299 14.1374 291.017 14.3523C290.734 14.561 290.51 14.8403 290.345 15.1902C290.185 15.534 290.065 15.9054 289.986 16.3044C289.906 16.6973 289.841 17.0686 289.792 17.4185L289.488 19.4719C289.458 19.7359 289.421 20.052 289.378 20.4204C289.341 20.7825 289.338 21.1447 289.369 21.5069C289.399 21.8691 289.504 22.1729 289.682 22.4185C289.866 22.664 290.157 22.796 290.556 22.8144C291.005 22.839 291.37 22.7438 291.652 22.529C291.941 22.3141 292.168 22.0318 292.334 21.6819C292.505 21.3319 292.631 20.9606 292.711 20.5677C292.797 20.1687 292.862 19.8004 292.904 19.4627Z" fill="#1C0E27"/>
<path d="M282.176 18.7352L280.04 18.726L280.325 17.1053L281.568 17.1238C281.906 17.1115 282.167 17.0225 282.351 16.8567C282.541 16.691 282.682 16.4761 282.774 16.2122C282.866 15.9421 282.931 15.6658 282.968 15.3835C282.992 15.1686 282.989 14.9599 282.959 14.7573C282.928 14.5486 282.848 14.3736 282.719 14.2324C282.596 14.0913 282.406 14.0207 282.148 14.0207C281.872 14.0145 281.648 14.079 281.476 14.214C281.31 14.3491 281.181 14.524 281.089 14.7389C280.997 14.9476 280.927 15.1655 280.878 15.3927L277.82 15.4111C277.851 14.8156 277.992 14.2785 278.244 13.7997C278.502 13.3209 278.839 12.9126 279.257 12.575C279.674 12.2374 280.147 11.9826 280.675 11.8107C281.203 11.6327 281.755 11.5468 282.332 11.5529C282.897 11.5652 283.416 11.6573 283.889 11.8292C284.367 11.9949 284.776 12.2405 285.113 12.5658C285.451 12.885 285.709 13.2748 285.887 13.7352C286.065 14.1895 286.135 14.7113 286.098 15.3006C286.068 15.8224 285.942 16.295 285.721 16.7186C285.5 17.1422 285.208 17.5044 284.846 17.8052C284.49 18.106 284.082 18.3362 283.622 18.4958C283.167 18.6554 282.685 18.7352 282.176 18.7352ZM280.178 17.9064L281.982 17.9157C282.498 17.9279 282.962 18.0139 283.373 18.1735C283.784 18.3269 284.131 18.551 284.413 18.8457C284.702 19.1342 284.914 19.4872 285.049 19.9046C285.19 20.3159 285.245 20.7855 285.214 21.3134C285.172 21.958 285.012 22.5319 284.736 23.0353C284.459 23.5325 284.094 23.9561 283.64 24.306C283.192 24.6498 282.685 24.9107 282.121 25.0887C281.562 25.2606 280.976 25.3434 280.362 25.3373C279.785 25.3189 279.257 25.2145 278.778 25.0242C278.305 24.8339 277.897 24.5669 277.553 24.2231C277.21 23.8794 276.946 23.4711 276.762 22.9985C276.584 22.5197 276.498 21.9948 276.504 21.4239L279.561 21.4147C279.561 21.6357 279.585 21.8567 279.634 22.0777C279.69 22.2925 279.788 22.4705 279.929 22.6117C280.07 22.7529 280.276 22.8266 280.546 22.8327C280.853 22.845 281.12 22.7775 281.347 22.6302C281.58 22.4767 281.765 22.2772 281.9 22.0316C282.041 21.7861 282.136 21.5221 282.185 21.2397C282.222 21.0433 282.246 20.8469 282.259 20.6504C282.277 20.4479 282.271 20.2668 282.24 20.1072C282.21 19.9414 282.136 19.8064 282.019 19.702C281.909 19.5915 281.725 19.5271 281.467 19.5086L279.901 19.4994L280.178 17.9064Z" fill="#1C0E27"/>
<path d="M271.144 19.9781L274.938 11.7369H278.29L272.94 22.3722C272.749 22.7589 272.538 23.1334 272.304 23.4956C272.077 23.8516 271.819 24.1708 271.531 24.4532C271.242 24.7356 270.914 24.9596 270.546 25.1254C270.177 25.2911 269.76 25.3771 269.293 25.3832C269.134 25.3893 268.977 25.3893 268.824 25.3832C268.676 25.3832 268.523 25.3801 268.363 25.374L268.483 22.8142C268.563 22.8326 268.643 22.8479 268.722 22.8602C268.808 22.8725 268.891 22.8756 268.971 22.8694C269.26 22.8817 269.499 22.8357 269.689 22.7313C269.886 22.6208 270.048 22.4735 270.177 22.2893C270.306 22.1052 270.417 21.8842 270.509 21.6263L271.144 19.9781ZM271.66 11.7369L272.535 17.6945L272.838 21.2764H270.748L268.529 11.7369H271.66Z" fill="#1C0E27"/>
<path d="M262.589 20.6042L259.817 20.595L260.25 18.0997L262.709 18.1181C263.077 18.1119 263.381 18.0199 263.62 17.8418C263.86 17.6638 264.044 17.4336 264.173 17.1512C264.308 16.8627 264.4 16.5558 264.449 16.2304C264.486 15.9972 264.507 15.7301 264.514 15.4293C264.526 15.1286 264.474 14.8615 264.357 14.6283C264.246 14.395 264.025 14.2661 263.694 14.2415L262.064 14.2323L260.158 25.1438H257.101L259.412 11.7369L263.786 11.7461C264.633 11.7707 265.348 11.9856 265.932 12.3907C266.515 12.7959 266.948 13.3299 267.23 13.9929C267.512 14.6559 267.62 15.3956 267.552 16.212C267.478 17.1144 267.215 17.894 266.76 18.5509C266.312 19.2077 265.729 19.7172 265.011 20.0794C264.293 20.4354 263.485 20.6104 262.589 20.6042Z" fill="#1C0E27"/>
<path d="M258.768 11.7369L258.335 14.2323H253.841L251.935 25.1438H248.869L251.19 11.7369H258.768Z" fill="#1C0E27"/>
<path d="M241.731 14.7019L237.541 25.1438H234.153L240.488 11.7369H242.624L241.731 14.7019ZM241.842 25.1438L241.252 14.3888L241.326 11.7369H243.361L245.055 25.1438H241.842ZM242.79 20.1438L242.348 22.6392H236.694L237.136 20.1438H242.79Z" fill="#1C0E27"/>
<path d="M230.772 11.7369L228.434 25.1438H225.376L227.697 11.7369H230.772ZM237.034 11.7369L231.896 19.84H228.857L228.986 16.921H230.662L233.176 11.7369H237.034ZM231.463 25.1438L230.367 19.1494L232.881 17.0868L234.971 25.1438H231.463Z" fill="#1C0E27"/>
<path d="M221.498 19.444H218.653L219.021 17.3262L221.047 17.3446C221.385 17.3385 221.683 17.274 221.94 17.1512C222.204 17.0285 222.416 16.8505 222.576 16.6172C222.741 16.3839 222.852 16.0985 222.907 15.7608C222.95 15.4785 222.956 15.2268 222.926 15.0058C222.895 14.7787 222.803 14.5976 222.649 14.4625C222.502 14.3213 222.269 14.2477 221.95 14.2415L220.734 14.2323L218.828 25.1438H215.771L218.082 11.7369L222.051 11.7461C222.616 11.7523 223.147 11.8321 223.644 11.9856C224.141 12.1329 224.574 12.3539 224.942 12.6485C225.317 12.9432 225.602 13.3176 225.799 13.7719C225.995 14.22 226.075 14.7541 226.038 15.3741C225.995 16.08 225.814 16.6694 225.495 17.142C225.175 17.6086 224.749 17.9646 224.215 18.2102C223.687 18.4557 223.085 18.5908 222.41 18.6153L221.498 19.444ZM220.439 25.1438H216.839L218.34 22.6576L220.55 22.6761C220.869 22.6638 221.139 22.587 221.36 22.4459C221.581 22.2985 221.756 22.1052 221.885 21.8657C222.02 21.6202 222.112 21.3501 222.161 21.0554C222.204 20.8406 222.229 20.6135 222.235 20.374C222.247 20.1346 222.201 19.929 222.097 19.7571C221.999 19.5791 221.808 19.4778 221.526 19.4532L219.058 19.444L219.454 17.3262L222.005 17.3354L222.557 18.1733C223.147 18.1918 223.641 18.3207 224.04 18.5601C224.445 18.7995 224.746 19.1371 224.942 19.573C225.145 20.0088 225.221 20.5183 225.172 21.1015C225.117 22.0161 224.878 22.7743 224.454 23.3759C224.037 23.9774 223.481 24.4256 222.787 24.7202C222.094 25.0149 221.311 25.1561 220.439 25.1438Z" fill="#1C0E27"/>
<path d="M212.171 14.7019L207.981 25.1438H204.593L210.928 11.7369H213.064L212.171 14.7019ZM212.281 25.1438L211.692 14.3888L211.766 11.7369H213.801L215.495 25.1438H212.281ZM213.23 20.1438L212.788 22.6392H207.134L207.576 20.1438H213.23Z" fill="#1C0E27"/>
<path d="M205.182 11.7369L202.852 25.1438H199.767L202.097 11.7369H205.182ZM208.331 11.7369L207.898 14.2323H198.589L199.031 11.7369H208.331Z" fill="#1C0E27"/>
<path d="M194.499 20.6137L197.492 20.5769C197.467 21.5406 197.225 22.3847 196.764 23.1091C196.31 23.8273 195.702 24.3828 194.941 24.7757C194.186 25.1625 193.33 25.3466 192.372 25.3282C191.537 25.3098 190.85 25.1287 190.309 24.7849C189.769 24.435 189.352 23.9746 189.057 23.4037C188.762 22.8267 188.575 22.1883 188.495 21.4885C188.422 20.7887 188.428 20.0827 188.514 19.3706L188.808 17.5014C188.919 16.7586 189.106 16.0312 189.37 15.3191C189.64 14.6009 189.999 13.9532 190.447 13.3762C190.896 12.7992 191.439 12.3449 192.077 12.0134C192.722 11.6819 193.465 11.5254 194.306 11.5438C195.282 11.5622 196.074 11.7863 196.681 12.216C197.289 12.6457 197.734 13.2227 198.016 13.9471C198.299 14.6715 198.437 15.4848 198.431 16.3872L195.346 16.3688C195.401 15.9759 195.417 15.6107 195.392 15.2731C195.374 14.9293 195.269 14.6469 195.079 14.4259C194.895 14.2049 194.566 14.0852 194.094 14.0668C193.646 14.0484 193.287 14.1497 193.016 14.3707C192.746 14.5917 192.541 14.8832 192.4 15.2454C192.258 15.6015 192.154 15.979 192.086 16.378C192.025 16.777 191.973 17.1453 191.93 17.483L191.654 19.3798C191.623 19.6438 191.574 19.9661 191.506 20.3467C191.445 20.7273 191.417 21.1017 191.423 21.47C191.436 21.8384 191.522 22.1514 191.681 22.4093C191.847 22.6609 192.142 22.7991 192.565 22.8236C193.032 22.8359 193.403 22.7469 193.679 22.5566C193.956 22.3602 194.155 22.0931 194.278 21.7555C194.407 21.4117 194.481 21.0311 194.499 20.6137Z" fill="#1C0E27"/>
<path d="M188.2 17.3817L187.887 19.4075C187.776 20.1871 187.58 20.936 187.298 21.6542C187.021 22.3663 186.653 23.0017 186.193 23.5603C185.732 24.1189 185.171 24.5609 184.508 24.8862C183.851 25.2055 183.093 25.3528 182.233 25.3282C181.411 25.3098 180.723 25.1318 180.171 24.7942C179.618 24.4565 179.185 24.0115 178.872 23.459C178.559 22.9004 178.354 22.2773 178.255 21.5898C178.157 20.8961 178.151 20.1871 178.237 19.4627L178.541 17.4278C178.651 16.6666 178.845 15.9299 179.121 15.2178C179.403 14.5057 179.778 13.8704 180.244 13.3118C180.711 12.747 181.272 12.3081 181.929 11.995C182.592 11.6758 183.353 11.5285 184.213 11.553C185.023 11.5653 185.702 11.7403 186.248 12.0779C186.8 12.4155 187.233 12.8606 187.546 13.4131C187.865 13.9655 188.074 14.5886 188.172 15.2823C188.277 15.9698 188.286 16.6696 188.2 17.3817ZM184.775 19.4627L185.088 17.4001C185.118 17.1362 185.152 16.8231 185.189 16.4609C185.226 16.0926 185.226 15.7304 185.189 15.3744C185.152 15.0183 185.045 14.7175 184.867 14.472C184.689 14.2264 184.403 14.0945 184.01 14.076C183.544 14.0453 183.169 14.1374 182.887 14.3523C182.605 14.561 182.381 14.8403 182.215 15.1902C182.055 15.534 181.935 15.9054 181.856 16.3044C181.776 16.6973 181.711 17.0686 181.662 17.4185L181.358 19.4719C181.328 19.7359 181.291 20.052 181.248 20.4204C181.211 20.7825 181.208 21.1447 181.239 21.5069C181.269 21.8691 181.374 22.1729 181.552 22.4185C181.736 22.664 182.028 22.796 182.427 22.8144C182.875 22.839 183.24 22.7438 183.522 22.529C183.811 22.3141 184.038 22.0318 184.204 21.6819C184.376 21.3319 184.501 20.9606 184.581 20.5677C184.667 20.1687 184.732 19.8004 184.775 19.4627Z" fill="#1C0E27"/>
<path d="M175.732 22.6576L175.299 25.1438H167.831L168.264 22.6576H175.732ZM169.286 22.6576L168.282 28.4311H165.446L166.229 22.6576H169.286ZM177.803 22.6576L176.459 28.4403H173.697L174.719 22.6576H177.803ZM176.404 11.7369L175.971 14.2323H170.4L170.842 11.7369H176.404ZM178.466 11.7369L176.146 25.1438H173.08L175.409 11.7369H178.466ZM170.658 11.7369H173.743L172.444 17.2341C172.303 17.8173 172.156 18.3636 172.002 18.8731C171.849 19.3827 171.677 19.8615 171.487 20.3096C171.303 20.7516 171.094 21.1751 170.861 21.5803C170.627 21.9855 170.37 22.3814 170.087 22.7681C169.811 23.1549 169.501 23.5447 169.157 23.9375C168.819 24.3243 168.445 24.7264 168.034 25.1438H166.072L166.441 22.6576L166.92 22.6761C167.362 22.3814 167.718 22.0223 167.988 21.5987C168.258 21.1751 168.476 20.7178 168.641 20.2267C168.807 19.7356 168.942 19.2353 169.047 18.7258C169.157 18.2102 169.261 17.7129 169.36 17.2341L170.658 11.7369Z" fill="#1C0E27"/>
<path d="M6.60014 8.51939C7.45518 3.59764 11.7766 0 16.8336 0H138.383C144.819 0 149.705 5.72262 148.616 11.9865L142.169 49.1023C141.313 54.024 136.992 57.6217 131.935 57.6217H10.3856C3.94963 57.6217 -0.936009 51.899 0.152196 45.6351L6.60014 8.51939Z" fill="#1C0E27"/>
<path d="M28.4869 30.4689H21.1621L22.0382 25.3745L27.7325 25.4225C28.6897 25.4065 29.5252 25.2223 30.2391 24.8698C30.9691 24.5014 31.5531 23.9807 31.9912 23.3079C32.4454 22.635 32.7374 21.826 32.8672 20.8808C32.9808 20.0638 32.9808 19.3509 32.8672 18.7421C32.7537 18.1173 32.4698 17.6127 32.0155 17.2282C31.5612 16.8437 30.888 16.6354 29.9957 16.6034L25.9804 16.5794L20.8701 45.7282H13.9103L20.0427 10.74L30.2877 10.764C31.7803 10.7961 33.1349 11.0123 34.3517 11.4128C35.5846 11.7973 36.6392 12.3821 37.5152 13.167C38.3913 13.952 39.0402 14.9213 39.462 16.0747C39.9 17.2282 40.0704 18.5899 39.973 20.1599C39.8433 21.9061 39.3566 23.396 38.5129 24.6295C37.6856 25.8471 36.5824 26.7923 35.2034 27.4651C33.8406 28.122 32.2994 28.4984 30.5797 28.5946L28.4869 30.4689ZM25.6397 45.7282H16.3924L20.0914 39.9369L25.9561 39.9609C26.9295 39.9289 27.7569 39.7046 28.4383 39.2881C29.1359 38.8716 29.6875 38.3108 30.093 37.606C30.5148 36.9011 30.7825 36.092 30.8961 35.1789C30.9934 34.49 31.0178 33.8011 30.9691 33.1123C30.9367 32.4074 30.742 31.8146 30.3851 31.334C30.0281 30.8374 29.4198 30.557 28.5599 30.493L22.2572 30.4689L23.2062 25.3745L30.2391 25.3985L31.4315 27.393C32.9727 27.4571 34.2219 27.8416 35.1791 28.5465C36.1524 29.2354 36.8501 30.1565 37.2719 31.31C37.6937 32.4634 37.8478 33.7771 37.7342 35.251C37.5882 37.5259 36.9798 39.4483 35.9091 41.0183C34.8546 42.5722 33.4432 43.7577 31.6748 44.5748C29.9065 45.3758 27.8948 45.7603 25.6397 45.7282Z" fill="#0C7372"/>
<path d="M47.2249 10.74L57.9079 10.764C60.0332 10.8281 61.8177 11.2847 63.2616 12.1337C64.7217 12.9668 65.8006 14.1523 66.4982 15.6902C67.212 17.2122 67.4797 19.0225 67.3012 21.1211C67.139 22.8673 66.7577 24.3973 66.1575 25.7109C65.5572 27.0246 64.7136 28.162 63.6266 29.1232C62.5397 30.0844 61.2094 30.9255 59.6357 31.6464L57.2509 32.896H47.9793L49.0013 27.0566L54.8904 27.1287C55.9773 27.0967 56.9021 26.8403 57.6646 26.3597C58.4271 25.8791 59.0273 25.2303 59.4654 24.4133C59.9196 23.5962 60.2116 22.6911 60.3414 21.6978C60.4388 20.9449 60.4469 20.1839 60.3658 19.415C60.3009 18.646 60.0575 17.9972 59.6357 17.4685C59.2139 16.9398 58.5406 16.6515 57.6159 16.6034L53.1626 16.5794L48.0523 45.7282H41.0925L47.2249 10.74ZM56.8372 45.7282L53.2356 30.1325L60.2441 30.1085L64.2594 45.3437V45.7282H56.8372Z" fill="#FF8B00"/>
<path d="M81.1965 10.74L75.0397 45.7282H68.1043L74.261 10.74H81.1965Z" fill="#FF1E0C"/>
<path d="M99.2044 34.0975L105.896 34.0014C105.637 36.4365 104.947 38.5832 103.828 40.4415C102.725 42.2999 101.224 43.7417 99.3261 44.767C97.4442 45.7923 95.2216 46.2729 92.6583 46.2088C90.533 46.1608 88.7728 45.7042 87.3776 44.8391C85.9986 43.958 84.936 42.8045 84.1897 41.3787C83.4597 39.9369 82.9973 38.3429 82.8026 36.5967C82.6079 34.8344 82.6323 33.0402 82.8756 31.2139L83.776 25.2784C84.068 23.3399 84.5628 21.4655 85.2604 19.6553C85.958 17.8289 86.8828 16.2029 88.0346 14.7771C89.2027 13.3353 90.6222 12.2058 92.2933 11.3888C93.9805 10.5718 95.9273 10.1873 98.1336 10.2353C100.664 10.2834 102.676 10.8681 104.169 11.9896C105.661 13.095 106.732 14.5768 107.381 16.4352C108.03 18.2935 108.354 20.3521 108.354 22.611L101.419 22.587C101.484 21.4976 101.468 20.4643 101.37 19.487C101.289 18.4938 100.973 17.6848 100.421 17.06C99.8695 16.4192 98.9286 16.0747 97.5983 16.0267C96.3004 15.9786 95.2297 16.2349 94.3861 16.7956C93.5587 17.3563 92.8935 18.1013 92.3906 19.0305C91.9039 19.9596 91.5308 20.9689 91.2712 22.0583C91.0278 23.1477 90.8332 24.205 90.6871 25.2303L89.8354 31.2379C89.7219 32.071 89.6164 33.0081 89.5191 34.0495C89.4379 35.0748 89.4542 36.068 89.5677 37.0292C89.6975 37.9744 90.0301 38.7674 90.5655 39.4082C91.1171 40.049 91.9931 40.3935 93.1936 40.4415C94.5889 40.5056 95.6839 40.2573 96.4789 39.6966C97.29 39.1359 97.8903 38.3669 98.2797 37.3897C98.6852 36.3964 98.9935 35.299 99.2044 34.0975Z" fill="#E00008"/>
<path d="M124.659 36.3323C124.756 35.6114 124.732 34.9866 124.586 34.458C124.44 33.9293 124.188 33.4647 123.831 33.0642C123.491 32.6477 123.069 32.2792 122.566 31.9588C122.079 31.6224 121.52 31.31 120.887 31.0216C119.735 30.4769 118.648 29.8682 117.626 29.1953C116.62 28.5064 115.728 27.7375 114.949 26.8884C114.187 26.0233 113.611 25.0461 113.221 23.9567C112.832 22.8673 112.686 21.6338 112.783 20.256C112.897 18.686 113.302 17.2762 114 16.0267C114.698 14.7771 115.606 13.7197 116.726 12.8547C117.845 11.9735 119.102 11.3167 120.497 10.8842C121.909 10.4356 123.369 10.2273 124.878 10.2594C127.019 10.3074 128.804 10.8121 130.231 11.7733C131.675 12.7345 132.746 14.0241 133.444 15.6422C134.158 17.2602 134.474 19.0705 134.393 21.073L127.457 21.049C127.522 20.264 127.482 19.487 127.336 18.7181C127.206 17.9331 126.906 17.2923 126.435 16.7956C125.965 16.283 125.227 16.0187 124.221 16.0026C123.377 15.9866 122.631 16.1708 121.982 16.5553C121.333 16.9398 120.806 17.4525 120.4 18.0933C119.995 18.7341 119.735 19.455 119.621 20.256C119.54 20.8808 119.605 21.4415 119.816 21.9381C120.043 22.4348 120.351 22.8833 120.741 23.2838C121.146 23.6683 121.601 24.0208 122.104 24.3412C122.607 24.6456 123.109 24.9099 123.612 25.1342C124.845 25.7269 125.973 26.3677 126.995 27.0566C128.017 27.7295 128.885 28.5064 129.599 29.3876C130.329 30.2527 130.856 31.2539 131.181 32.3914C131.521 33.5288 131.643 34.8264 131.546 36.2843C131.416 37.9023 131.018 39.3281 130.353 40.5617C129.704 41.7952 128.844 42.8446 127.774 43.7097C126.703 44.5587 125.478 45.1996 124.099 45.6321C122.736 46.0646 121.26 46.2649 119.67 46.2329C117.983 46.1848 116.474 45.8724 115.144 45.2957C113.813 44.7029 112.694 43.8859 111.786 42.8446C110.893 41.8033 110.228 40.5857 109.79 39.192C109.352 37.7982 109.174 36.2923 109.255 34.6742L116.215 34.6983C116.166 35.4512 116.174 36.1801 116.239 36.885C116.32 37.5899 116.498 38.2147 116.774 38.7594C117.066 39.2881 117.488 39.7126 118.04 40.033C118.591 40.3374 119.321 40.4896 120.23 40.4896C121.09 40.4896 121.828 40.3134 122.444 39.9609C123.061 39.6085 123.556 39.1199 123.929 38.4951C124.302 37.8703 124.545 37.1494 124.659 36.3323Z" fill="#9100D5"/>
</svg>
