<svg width="142" height="55" viewBox="0 0 142 55" fill="none" xmlns="http://www.w3.org/2000/svg">
<path d="M6.29985 8.13178C7.11598 3.43396 11.2408 0 16.0677 0H132.087C138.23 0 142.893 5.46225 141.855 11.4412L135.7 46.8682C134.884 51.566 130.759 55 125.932 55H9.9131C3.76993 55 -0.893423 49.5378 0.145271 43.5588L6.29985 8.13178Z" fill="#1C0E27"/>
<path d="M27.1908 29.0827H20.1993L21.0355 24.22L26.4708 24.2659C27.3844 24.2506 28.1819 24.0747 28.8632 23.7383C29.5601 23.3866 30.1175 22.8897 30.5356 22.2474C30.9692 21.6052 31.248 20.833 31.3718 19.9308C31.4802 19.1509 31.4802 18.4704 31.3718 17.8894C31.2634 17.293 30.9925 16.8113 30.5589 16.4443C30.1253 16.0773 29.4826 15.8786 28.631 15.848L24.7984 15.825L19.9205 43.6477H13.2774L19.1308 10.2513L28.9097 10.2743C30.3343 10.3049 31.6273 10.5113 32.7887 10.8936C33.9656 11.2606 34.9721 11.8187 35.8083 12.568C36.6446 13.3173 37.264 14.2424 37.6666 15.3434C38.0847 16.4443 38.2473 17.7441 38.1544 19.2427C38.0305 20.9094 37.5659 22.3315 36.7607 23.509C35.9709 24.6711 34.9179 25.5733 33.6017 26.2155C32.301 26.8425 30.8299 27.2018 29.1884 27.2936L27.1908 29.0827ZM24.4732 43.6477H15.6466L19.1772 38.1199L24.7751 38.1428C25.7043 38.1122 26.494 37.8981 27.1444 37.5006C27.8102 37.103 28.3367 36.5678 28.7239 35.895C29.1265 35.2221 29.382 34.4499 29.4904 33.5783C29.5833 32.9208 29.6065 32.2633 29.5601 31.6057C29.5291 30.9329 29.3433 30.3671 29.0026 29.9084C28.6619 29.4344 28.0812 29.1668 27.2605 29.1056L21.2445 29.0827L22.1504 24.22L28.8632 24.2429L30.0014 26.1467C31.4725 26.2079 32.6649 26.5749 33.5785 27.2477C34.5076 27.9052 35.1735 28.7845 35.5761 29.8855C35.9787 30.9864 36.1258 32.2403 36.0174 33.6471C35.878 35.8185 35.2973 37.6535 34.2753 39.152C33.2688 40.6353 31.9216 41.7668 30.2337 42.5467C28.5458 43.3113 26.6256 43.6783 24.4732 43.6477Z" fill="#0C7372"/>
<path d="M45.0762 10.2513L55.2732 10.2743C57.3018 10.3354 59.0052 10.7712 60.3834 11.5817C61.777 12.3768 62.8068 13.5084 63.4726 14.9764C64.154 16.429 64.4095 18.157 64.2392 20.1601C64.0843 21.8269 63.7204 23.2872 63.1475 24.5411C62.5745 25.795 61.7693 26.8807 60.7318 27.7982C59.6943 28.7157 58.4245 29.5185 56.9224 30.2066L54.6461 31.3993H45.7963L46.7719 25.8256L52.393 25.8944C53.4305 25.8638 54.3132 25.6192 55.041 25.1604C55.7688 24.7017 56.3417 24.0824 56.7598 23.3025C57.1934 22.5227 57.4721 21.6587 57.596 20.7106C57.6889 19.9919 57.6967 19.2656 57.6192 18.5316C57.5573 17.7976 57.325 17.1783 56.9224 16.6737C56.5198 16.1691 55.8772 15.8938 54.9945 15.848L50.7438 15.825L45.866 43.6477H39.2228L45.0762 10.2513ZM54.2512 43.6477L50.8135 28.7615L57.5031 28.7386L61.3357 43.2807V43.6477H54.2512Z" fill="#FF8B00"/>
<path d="M77.5022 10.2513L71.6256 43.6477H65.0057L70.8823 10.2513H77.5022Z" fill="#FF1E0C"/>
<path d="M94.6908 32.5462L101.078 32.4544C100.831 34.7787 100.173 36.8277 99.1041 38.6015C98.0511 40.3753 96.6187 41.7516 94.8069 42.7302C93.0107 43.7089 90.8892 44.1676 88.4425 44.1064C86.414 44.0606 84.7338 43.6247 83.4021 42.799C82.0859 41.958 81.0716 40.857 80.3593 39.4961C79.6624 38.1199 79.2211 36.5984 79.0353 34.9316C78.8494 33.2496 78.8727 31.5369 79.1049 29.7937L79.9644 24.1283C80.2431 22.278 80.7154 20.4889 81.3813 18.761C82.0471 17.0178 82.9298 15.4657 84.0292 14.1048C85.1442 12.7285 86.4991 11.6505 88.0941 10.8706C89.7046 10.0908 91.5628 9.72378 93.6688 9.76966C96.0845 9.81553 98.0046 10.3737 99.4293 11.4441C100.854 12.4992 101.876 13.9136 102.495 15.6874C103.115 17.4612 103.424 19.4262 103.424 21.5822L96.8045 21.5593C96.8665 20.5195 96.851 19.5332 96.7581 18.6004C96.6806 17.6524 96.3787 16.8801 95.8522 16.2838C95.3257 15.6721 94.4275 15.3434 93.1578 15.2975C91.9189 15.2516 90.8969 15.4963 90.0917 16.0315C89.302 16.5667 88.6671 17.2777 88.187 18.1646C87.7225 19.0515 87.3663 20.0149 87.1185 21.0547C86.8863 22.0945 86.7004 23.1037 86.5611 24.0824L85.7481 29.8166C85.6397 30.6118 85.539 31.5063 85.4461 32.5003C85.3687 33.4789 85.3842 34.427 85.4926 35.3445C85.6165 36.2467 85.9339 37.0036 86.4449 37.6152C86.9714 38.2269 87.8076 38.5557 88.9535 38.6015C90.2853 38.6627 91.3305 38.4257 92.0893 37.8905C92.8635 37.3553 93.4365 36.6213 93.8081 35.6885C94.1953 34.7405 94.4895 33.693 94.6908 32.5462Z" fill="#E00008"/>
<path d="M118.987 34.6793C119.08 33.9912 119.057 33.3948 118.917 32.8902C118.778 32.3856 118.538 31.9421 118.197 31.5599C117.872 31.1623 117.47 30.8106 116.989 30.5048C116.525 30.1836 115.991 29.8855 115.387 29.6102C114.287 29.0903 113.25 28.5092 112.274 27.867C111.314 27.2095 110.462 26.4755 109.719 25.665C108.991 24.8393 108.442 23.9065 108.07 22.8667C107.698 21.8269 107.559 20.6495 107.652 19.3344C107.76 17.8359 108.147 16.4902 108.813 15.2975C109.479 14.1048 110.346 13.0955 111.415 12.2698C112.483 11.4288 113.683 10.8018 115.015 10.389C116.362 9.9608 117.756 9.76201 119.196 9.79259C121.24 9.83847 122.944 10.3201 124.306 11.2376C125.684 12.1551 126.706 13.3861 127.372 14.9305C128.054 16.4749 128.356 18.2028 128.278 20.1143L121.658 20.0913C121.72 19.3421 121.681 18.6004 121.542 17.8664C121.418 17.1172 121.132 16.5055 120.683 16.0315C120.234 15.5421 119.529 15.2898 118.569 15.2745C117.764 15.2593 117.051 15.4351 116.432 15.8021C115.813 16.1691 115.309 16.6584 114.922 17.2701C114.535 17.8817 114.287 18.5698 114.179 19.3344C114.102 19.9308 114.163 20.466 114.365 20.94C114.582 21.414 114.876 21.8422 115.247 22.2245C115.635 22.5915 116.068 22.9279 116.548 23.2337C117.028 23.5242 117.508 23.7766 117.988 23.9906C119.165 24.5564 120.241 25.1681 121.217 25.8256C122.193 26.4678 123.021 27.2095 123.702 28.0505C124.399 28.8762 124.902 29.8319 125.212 30.9176C125.537 32.0033 125.653 33.2419 125.561 34.6334C125.437 36.1779 125.057 37.5388 124.422 38.7162C123.803 39.8937 122.982 40.8952 121.96 41.721C120.938 42.5314 119.769 43.1431 118.453 43.5559C117.152 43.9688 115.743 44.1599 114.225 44.1294C112.615 44.0835 111.175 43.7853 109.905 43.2348C108.635 42.669 107.567 41.8892 106.7 40.8952C105.848 39.9013 105.213 38.7392 104.795 37.4088C104.377 36.0785 104.206 34.6411 104.284 33.0966L110.927 33.1196C110.881 33.8383 110.888 34.534 110.95 35.2069C111.028 35.8797 111.198 36.476 111.461 36.9959C111.74 37.5006 112.143 37.9058 112.669 38.2116C113.196 38.5021 113.892 38.6474 114.76 38.6474C115.58 38.6474 116.285 38.4792 116.873 38.1428C117.462 37.8064 117.934 37.34 118.29 36.7436C118.646 36.1473 118.879 35.4592 118.987 34.6793Z" fill="#9100D5"/>
</svg>
